<?xml version="1.0" encoding="UTF-8"?>
<svg id="Layer_1" xmlns="http://www.w3.org/2000/svg" version="1.1" viewBox="0 0 24 24">
  <!-- Generator: Adobe Illustrator 30.2.1, SVG Export Plug-In . SVG Version: 2.1.1 Build 1)  -->
  <defs>
    <style>
      .st0 {
        fill: #e87d0d;
      }
    </style>
  </defs>
  <path class="st0" d="M12.51,13.21c.05-.8.44-1.51,1.03-2.01.62-.52,1.4-.8,2.21-.79.85,0,1.63.3,2.21.79.59.5.98,1.21,1.03,2.01.05.82-.28,1.59-.86,2.15-.64.61-1.49.95-2.37.94-.88,0-1.74-.33-2.38-.94-.58-.57-.91-1.33-.86-2.15M7.35,14.83c0,.31.11.92.26,1.4.32,1.02.87,1.97,1.59,2.76.78.86,1.73,1.54,2.79,2,1.15.51,2.4.77,3.66.76,1.26,0,2.51-.26,3.66-.77,1.06-.47,2.01-1.15,2.78-2.01.72-.79,1.27-1.74,1.59-2.76.31-.99.4-2.04.25-3.07-.14-.99-.49-1.93-1.02-2.78-.49-.79-1.12-1.48-1.85-2.04h0l-7.5-5.76-.02-.02c-.49-.38-1.32-.38-1.86,0-.55.38-.61,1.02-.12,1.41h0s3.13,2.54,3.13,2.54H5.16s-.01.01-.01.01c-.79,0-1.55.52-1.7,1.17-.15.67.38,1.22,1.2,1.22h0s4.83,0,4.83,0L.86,15.51l-.03.02c-.81.62-1.08,1.66-.56,2.31.52.67,1.62.67,2.45,0l4.7-3.85s-.07.52-.06.83h0ZM19.44,16.57c-.97.99-2.33,1.55-3.8,1.55-1.47,0-2.83-.55-3.8-1.54-.46-.46-.81-1.01-1.04-1.62-.42-1.16-.31-2.44.28-3.52.29-.53.68-.99,1.15-1.37.94-.77,2.14-1.18,3.4-1.19,1.26,0,2.45.41,3.4,1.18.48.39.87.85,1.15,1.37.29.53.47,1.11.52,1.71.05.61-.03,1.23-.24,1.81-.22.61-.58,1.16-1.03,1.63"/>
</svg>