<?xml version="1.0" encoding="UTF-8"?>
<svg id="Layer_1" xmlns="http://www.w3.org/2000/svg" version="1.1" viewBox="0 0 24 24">
  <!-- Generator: Adobe Illustrator 30.2.1, SVG Export Plug-In . SVG Version: 2.1.1 Build 1)  -->
  <defs>
    <style>
      .st0 {
        fill: #639;
      }
    </style>
  </defs>
  <path class="st0" d="M17.62,0H5.98c-1.37,0-2.76.35-3.76,1.11-.7.51-1.26,1.2-1.61,2-.37.81-.61,1.9-.61,2.83v12.2c.01,1.6.49,3.06,1.47,4.11.98,1.06,2.46,1.68,4.33,1.69l11.05.05c1.26,0,3.09-.04,4.3-.71,1.08-.6,2.02-1.56,2.5-2.98.28-.84.34-2.08.34-3.15l-.02-11.13c0-.89-.15-2.02-.55-2.93-.42-.98-1.18-1.82-2.32-2.42C20.35.26,19.12,0,17.62,0h0ZM17.62.93c1.38,0,2.54.3,3.04.56.98.52,1.54,1.17,1.89,1.96.32.72.47,1.79.47,2.57l.02,11.13c0,1.01-.1,2.26-.3,2.86-.4,1.2-1.15,1.95-2.06,2.46-.81.46-2.61.59-3.82.59l-11.05-.04c-1.66,0-2.83-.53-3.63-1.39-.79-.85-1.21-2.06-1.21-3.49l.03-12.2c0-.83.2-1.83.47-2.44.35-.76.75-1.21,1.37-1.67.75-.57,2.03-.87,3.24-.87l11.54-.04ZM11.96,4.35c-1.98.09-3.2,1.66-3.21,3.29.02,1.44,1.64,3.48,2.88,4.53.12.1.15.11.33.18.06.02.2-.05.33-.14.36-.24.99-.95,1.65-1.74.41-.51.76-1.08,1.03-1.68.41-.89.26-1.6.23-1.89-.18-.64-.52-1.22-.99-1.69-.62-.56-1.42-.86-2.25-.86ZM16.13,12.27c-1.11.03-2.2.23-3.24.61-.15.06-.26.1-.37.17-.06.04-.11.14-.1.29.02.43.29,1.28.62,2.27.38,1.14,1.07,2.27,1.84,2.74.76.46,1.68.58,2.53.34.83-.24,1.59-.87,1.96-1.55.99-1.82.19-3.55-1.12-4.42-.45-.3-1.13-.44-1.89-.46-.07,0-.15,0-.23,0ZM7.7,12.31c-.25,0-.5.02-.75.05-.6.08-.93.27-1.29.51-.7.46-1.19,1.17-1.36,1.98-.07.55-.09,1.05.03,1.51.43,1.39,1.33,2.22,2.85,2.45.64.03,1.37-.06,1.99-.45,1.27-.78,2.08-3.17,2.41-4.74.05-.18.03-.36-.01-.42,0-.07-.04-.11-.19-.18-.4-.19-1.32-.42-2.38-.6-.43-.07-.86-.1-1.3-.1Z"/>
</svg>