<?xml version="1.0" encoding="UTF-8"?>
<svg id="Layer_1" xmlns="http://www.w3.org/2000/svg" version="1.1" viewBox="0 0 150 150">
  <!-- Generator: Adobe Illustrator 30.2.1, SVG Export Plug-In . SVG Version: 2.1.1 Build 1)  -->
  <defs>
    <style>
      .st0 {
        display: none;
      }

      .st0, .st1 {
        fill: #ff7629;
      }
    </style>
  </defs>
  <path class="st1" d="M30,99c0-15.57,2.42-32.55,7.95-45.04.37.03.72.04,1.05.04,2.52,0,4.74-.25,6.78-.6,1.91-.32,3.7-.72,5.55-1.1.89-.18,1.81-.36,2.78-.53.31,4.87,1.29,10.6,3.67,15.68,3.28,7.04,9.8,13.54,20.21,13.54,7.78,0,15.67-3.82,21.78-9.58.06.08.12.16.18.24,1.08,1.43,2.41,3.23,3.72,4.79,1.29,1.54,3.02,3.42,5.16,4.9.04.03.08.06.13.09-3.47,12.61-10.96,26.12-19.36,37.39-11.25,15.1-25.57,28.19-35.61,28.19-19.9,0-24-31.7-24-48ZM110.79,75.24c-1.6-1.44-3.11-3.33-4.5-5.16-2.46-3.23-4.41-5.86-6.43-7.81-5.25,7.27-13.76,12.74-21.86,12.74-7.57,0-12.22-4.6-14.78-10.08-2.49-5.35-3.23-11.84-3.23-16.92,0-.9.07-1.89.21-2.94-4.15.22-7.28.79-10.09,1.36-3.55.73-6.96,1.57-11.12,1.57-.74,0-1.58-.11-2.41-.44-1.4-.55-2.7-1.68-3.29-3.49-.21-.66-.3-1.36-.3-2.07,0-5.58,3.46-11.6,8.65-16.09,5.28-4.57,12.71-7.91,21.35-7.91s17.29,4.88,21.92,12.49c4.57-10.48,11.98-19.23,21.17-26.81l3.82,4.63c-8.69,7.17-15.44,15.24-19.54,24.69,8.96.1,17.64,2.59,24.21,7.06,6.74,4.6,11.42,11.44,11.42,19.93,0,2.72-.56,6.21-1.49,9.27-.83,2.75-2.26,6.28-4.71,7.87-.76.49-1.71.86-2.81.86-2.54,0-4.62-1.35-6.2-2.77Z"/>
  <path class="st0" d="M110.79,75.24c-1.6-1.44-3.11-3.33-4.5-5.16-2.46-3.23-4.41-5.86-6.43-7.81-5.25,7.27-13.76,12.74-21.86,12.74-7.57,0-12.22-4.6-14.78-10.08-2.49-5.35-3.23-11.84-3.23-16.92,0-.9.07-1.89.21-2.94-4.15.22-7.28.79-10.09,1.36-3.55.73-6.96,1.57-11.12,1.57-.74,0-1.58-.11-2.41-.44-1.4-.55-2.7-1.68-3.29-3.49-.21-.66-.3-1.36-.3-2.07,0-5.58,3.46-11.6,8.65-16.09,5.28-4.57,12.71-7.91,21.35-7.91s17.29,4.88,21.92,12.49c4.57-10.48,11.98-19.23,21.17-26.81l3.82,4.63c-8.69,7.17-15.44,15.24-19.54,24.69,8.96.1,17.64,2.59,24.21,7.06,6.74,4.6,11.42,11.44,11.42,19.93,0,2.72-.56,6.21-1.49,9.27-.83,2.75-2.26,6.28-4.71,7.87-.76.49-1.71.86-2.81.86-2.54,0-4.62-1.35-6.2-2.77Z"/>
</svg>