<?xml version="1.0" encoding="UTF-8"?>
<svg id="Layer_1" xmlns="http://www.w3.org/2000/svg" version="1.1" viewBox="0 0 24 24">
  <!-- Generator: Adobe Illustrator 30.2.1, SVG Export Plug-In . SVG Version: 2.1.1 Build 1)  -->
  <defs>
    <style>
      .st0 {
        fill: #302e31;
      }
    </style>
  </defs>
  <path class="st0" d="M12,24C5.38,24,0,18.62,0,12S5.38,0,12,0s12,5.38,12,12-5.38,12-12,12ZM12,1.11C5.99,1.11,1.11,5.99,1.11,12s4.88,10.89,10.89,10.89,10.89-4.89,10.89-10.89S18,1.11,12,1.11ZM6.18,5.99c.35-1.7,1.5-3.23,3.05-4-.27.27-.6.48-.84.78-1.02,1.1-1.48,2.69-1.2,4.16.36,2.24,2.46,4.06,4.73,4.03,1.77.08,3.48-.94,4.35-2.47,1.85.06,3.65,1.02,4.7,2.55.54.8.96,1.74.99,2.71-.34-1.3-1.2-2.45-2.38-3.1-1.14-.64-2.53-.8-3.77-.43-1.56.45-2.85,1.72-3.29,3.29-.38,1.25-.22,2.63.38,3.77-.82,1.43-2.31,2.45-3.93,2.76-1.24.26-2.55.06-3.71-.46,1.04.3,2.16.35,3.19-.01,1.38-.46,2.52-1.57,3.02-2.93.56-1.49.35-3.26-.59-4.54-.7-1.01-1.8-1.72-3-1.97-.38-.07-.76-.1-1.15-.13-.61-1.23-.83-2.66-.53-4h-.02Z"/>
</svg>