<?xml version="1.0" encoding="UTF-8"?>
<svg id="Layer_1" xmlns="http://www.w3.org/2000/svg" version="1.1" viewBox="0 0 800 800">
  <!-- Generator: Adobe Illustrator 30.2.1, SVG Export Plug-In . SVG Version: 2.1.1 Build 1)  -->
  <defs>
    <style>
      .st0 {
        fill: #0078d7;
      }
    </style>
  </defs>
  <path class="st0" d="M771.62,86.2L607.05,7.02c-19.15-9.25-41.93-5.35-56.9,9.62L234.93,304.27l-137.37-104.17c-12.75-9.77-30.73-8.98-42.58,1.82l-44,40.1c-14.58,13.15-14.58,36.07-.12,49.22l119.15,108.72L10.85,508.7c-14.45,13.15-14.45,36.08.12,49.22l44,40.1c11.98,10.8,29.82,11.6,42.58,1.82l137.37-104.3,315.38,287.75c14.85,14.98,37.62,18.87,56.77,9.63l164.73-79.3c17.33-8.33,28.25-25.78,28.25-45.05V131.2c0-19.15-11.08-36.72-28.38-45.05l-.05.05ZM600.12,581.65l-239.32-181.65,239.32-181.65v363.3Z"/>
</svg>